HIERARCHY
ROOT Hips
{
    OFFSET 0.000000 0.000000 0.000000
    CHANNELS 6 Xposition Yposition Zposition Zrotation Xrotation Yrotation
    JOINT Spine
    {
        OFFSET -0.000000 14.517291 0.000000
        CHANNELS 3 Zrotation Xrotation Yrotation
        JOINT Spine1
        {
            OFFSET -0.000000 37.558300 0.000000
            CHANNELS 3 Zrotation Xrotation Yrotation
            JOINT Neck
            {
                OFFSET -0.000000 37.404057 3.400369
                CHANNELS 3 Zrotation Xrotation Yrotation
                JOINT Head
                {
                    OFFSET -0.000000 24.785618 -3.540803
                    CHANNELS 3 Zrotation Xrotation Yrotation
                    End Site
                    {
                        OFFSET -0.000000 35.408028 0.000000
                    }
                }
            }
            JOINT LeftShoulder
            {
                OFFSET 6.992933 33.973492 -0.192664
                CHANNELS 3 Zrotation Xrotation Yrotation
                JOINT LeftArm
                {
                    OFFSET 21.527611 0.000000 0.000000
                    CHANNELS 3 Zrotation Xrotation Yrotation
                    JOINT LeftForeArm
                    {
                        OFFSET 56.353916 0.000000 0.000000
                        CHANNELS 3 Zrotation Xrotation Yrotation
                        JOINT LeftHand
                        {
                            OFFSET 47.774071 0.000000 0.000000
                            CHANNELS 3 Zrotation Xrotation Yrotation
                            End Site
                            {
                                OFFSET 26.556021 0.000000 0.000000
                            }
                        }
                    }
                }
            }
            JOINT RightShoulder
            {
                OFFSET -7.065357 33.973492 -0.192664
                CHANNELS 3 Zrotation Xrotation Yrotation
                JOINT RightArm
                {
                    OFFSET -21.527611 0.000000 0.000000
                    CHANNELS 3 Zrotation Xrotation Yrotation
                    JOINT RightForeArm
                    {
                        OFFSET -56.353916 0.000000 0.000000
                        CHANNELS 3 Zrotation Xrotation Yrotation
                        JOINT RightHand
                        {
                            OFFSET -47.774071 0.000000 0.000000
                            CHANNELS 3 Zrotation Xrotation Yrotation
                            End Site
                            {
                                OFFSET -26.556021 0.000000 0.000000
                            }
                        }
                    }
                }
            }
        }
    }
    JOINT LeftUpLeg
    {
        OFFSET 17.704014 0.000000 0.000000
        CHANNELS 3 Zrotation Xrotation Yrotation
        JOINT LeftLeg
        {
            OFFSET -0.000000 -81.181816 0.000000
            CHANNELS 3 Zrotation Xrotation Yrotation
            JOINT LeftFoot
            {
                OFFSET -0.000000 -62.821102 0.000000
                CHANNELS 3 Zrotation Xrotation Yrotation
                JOINT LeftToeBase
                {
                    OFFSET -0.000000 -11.507608 26.556021
                    CHANNELS 3 Zrotation Xrotation Yrotation
                    End Site
                    {
                        OFFSET -0.000000 0.000000 7.081605
                    }
                }
            }
        }
    }
    JOINT RightUpLeg
    {
        OFFSET -17.704014 0.000000 0.000000
        CHANNELS 3 Zrotation Xrotation Yrotation
        JOINT RightLeg
        {
            OFFSET -0.000000 -81.181816 0.000000
            CHANNELS 3 Zrotation Xrotation Yrotation
            JOINT RightFoot
            {
                OFFSET -0.000000 -62.821102 0.000000
                CHANNELS 3 Zrotation Xrotation Yrotation
                JOINT RightToeBase
                {
                    OFFSET -0.000000 -11.507608 26.556021
                    CHANNELS 3 Zrotation Xrotation Yrotation
                    End Site
                    {
                        OFFSET -0.000000 0.000000 7.081605
                    }
                }
            }
        }
    }
}
MOTION
Frames:    8
Frame Time:    0.008333
61.193203    145.834717    62.714706    7.699665    0.764238    -50.624249    -0.884412    3.402646    -2.809824    -0.769954    -0.797474    -0.951857    16.646896    0.011389    9.041756    -11.829365    3.132423    5.555785    11.149345    4.053910    -18.065958    -11.469591    -6.186894    -26.225605    13.248702    0.409191    -53.075443    1.422818    6.507625    -41.633484    -9.377223    -1.318218    -7.971464    29.150326    -23.093233    39.405678    5.462624    -23.706041    108.164368    14.874292    -26.845554    30.539886    33.419849    -19.668343    15.210590    -34.886810    44.978367    1.103143    -8.138627    -22.205471    41.236423    0.000000    0.000000    0.000000    -37.487099    -25.729107    -17.022823    2.607072    35.944271    -5.336272    16.225576    -1.452552    -7.970551    0.000000    0.000000    0.000000    
61.335903    145.868973    62.884201    7.655642    0.767468    -50.730556    -0.868412    3.341360    -2.776539    -0.793399    -0.779847    -0.940454    16.556581    -0.005168    9.079050    -11.799606    3.250140    5.621541    11.034215    4.071208    -17.992947    -11.497856    -6.209544    -26.158382    13.099687    0.380954    -53.041767    1.402433    6.408987    -41.509861    -9.479217    -1.323786    -7.910203    29.136627    -22.993469    39.439064    5.470927    -23.790186    108.092796    14.822435    -26.943790    30.525116    33.274704    -19.560833    15.330004    -34.653122    45.007755    0.894572    -7.887530    -22.400856    41.341301    0.000000    0.000000    0.000000    -37.462303    -25.567739    -17.105131    2.538327    35.510384    -5.442403    16.330633    -1.126471    -7.838943    0.000000    0.000000    0.000000    
61.447369    145.902725    63.026382    7.595006    0.783921    -50.826637    -0.808620    3.266510    -2.747580    -0.853809    -0.750260    -0.930206    16.449467    0.019169    9.088981    -11.730768    3.314960    5.666355    10.969914    4.087453    -17.939846    -11.541233    -6.126276    -26.081699    13.143468    0.365437    -52.869194    1.508323    6.348197    -41.697735    -9.583056    -1.275922    -7.895059    29.208755    -22.994986    39.561123    5.507784    -23.762238    107.962242    14.862264    -26.936432    30.521358    33.147240    -19.452230    15.432583    -34.370819    45.038918    0.629360    -7.662498    -22.618282    41.458061    0.000000    0.000000    0.000000    -37.420525    -25.388489    -17.138756    2.526145    35.076332    -5.564482    16.468092    -0.823959    -7.731893    0.000000    0.000000    0.000000    
61.528622    145.939453    63.124157    7.538250    0.829457    -50.895752    -0.759499    3.187562    -2.731756    -0.868570    -0.750523    -0.924435    16.339939    0.055962    9.105614    -11.662888    3.384058    5.720558    10.881979    4.126143    -17.886715    -11.563149    -6.060704    -26.028976    12.960325    0.162015    -52.888306    1.298790    6.142112    -41.220333    -9.647619    -1.227081    -7.836345    29.202797    -23.018148    39.614220    5.528685    -23.755863    107.831886    14.841868    -26.945057    30.521721    33.066135    -19.377094    15.483685    -34.149082    45.020702    0.482400    -7.469624    -22.779188    41.551186    0.000000    0.000000    0.000000    -37.371559    -25.243328    -17.231205    2.512924    34.714626    -5.604245    16.608461    -0.538381    -7.729646    0.000000    0.000000    0.000000    
61.577404    145.978088    63.186802    7.475823    0.892632    -50.948071    -0.686948    3.109502    -2.711956    -0.917274    -0.754172    -0.917327    16.322090    0.072363    9.113791    -11.673919    3.472641    5.741945    10.854805    4.171643    -17.836870    -11.606520    -6.053693    -26.031561    12.889684    0.195071    -52.686272    1.345317    6.089846    -41.507072    -9.700407    -1.261751    -7.780616    29.193544    -23.020359    39.560318    5.550102    -23.692705    107.704338    14.866948    -26.889967    30.505011    33.017632    -19.322716    15.522134    -33.916183    45.012794    0.302083    -7.317538    -22.931686    41.653942    0.000000    0.000000    0.000000    -37.305698    -25.109337    -17.320717    2.503567    34.393681    -5.579444    16.772480    -0.287394    -7.784964    0.000000    0.000000    0.000000    
61.590618    146.025223    63.212322    7.396107    0.972768    -50.968758    -0.593138    3.034786    -2.700367    -0.969951    -0.753152    -0.912832    16.329647    0.079634    9.119306    -11.696512    3.560327    5.753985    10.844331    4.168404    -17.809484    -11.647077    -5.972960    -26.017994    12.720894    0.168677    -52.584976    1.472326    5.918580    -41.417915    -9.717270    -1.279500    -7.765950    29.121534    -22.969740    39.532085    5.547218    -23.753405    107.570038    14.779526    -26.952658    30.488287    33.014969    -19.297295    15.455251    -33.760967    44.976391    0.239751    -7.223161    -23.043690    41.731770    0.000000    0.000000    0.000000    -37.208374    -24.951225    -17.397310    2.517621    34.074562    -5.538668    16.956491    -0.071204    -7.896854    0.000000    0.000000    0.000000    
61.577953    146.074509    63.199020    7.309854    1.057747    -50.965870    -0.494292    2.977984    -2.694246    -1.033884    -0.767556    -0.910374    16.339451    0.092629    9.122814    -11.686885    3.622354    5.765460    10.872440    4.177772    -17.823843    -11.674524    -5.862066    -25.968267    12.827348    0.167129    -52.434376    1.376021    5.983329    -41.566338    -9.691096    -1.242596    -7.775732    29.016129    -22.880739    39.530479    5.488016    -23.951271    107.402283    14.790457    -27.038986    30.572966    33.036522    -19.306780    15.362999    -33.604282    44.956203    0.209805    -7.196764    -23.114857    41.806290    0.000000    0.000000    0.000000    -37.103024    -24.801172    -17.442442    2.550374    33.802593    -5.605473    17.156120    0.158519    -7.880215    0.000000    0.000000    0.000000    
61.544346    146.120163    63.153629    7.220675    1.135936    -50.936527    -0.399281    2.945000    -2.711272    -1.106623    -0.797172    -0.915901    16.372311    0.118061    9.124623    -11.682429    3.656804    5.770118    10.920919    4.198944    -17.822334    -11.682550    -5.717774    -25.942106    12.803636    0.095513    -52.359425    1.443074    5.866811    -41.406132    -9.649511    -1.236642    -7.786454    28.974590    -22.904819    39.531254    5.518363    -23.935431    107.248642    14.851802    -27.024029    30.594244    33.073158    -19.343801    15.186924    -33.515553    44.930958    0.240681    -7.203073    -23.157534    41.882935    0.000000    0.000000    0.000000    -37.014683    -24.648941    -17.467157    2.650919    33.573650    -5.723488    17.343544    0.348727    -7.908397    0.000000    0.000000    0.000000    
